<?xml version="1.0" encoding="utf-8"?>
<!-- Generator: Adobe Illustrator 16.0.0, SVG Export Plug-In . SVG Version: 6.00 Build 0)  -->
<!DOCTYPE svg PUBLIC "-//W3C//DTD SVG 1.1//EN" "http://www.w3.org/Graphics/SVG/1.1/DTD/svg11.dtd">
<svg version="1.1" id="Layer_1" xmlns="http://www.w3.org/2000/svg" xmlns:xlink="http://www.w3.org/1999/xlink" x="0px" y="0px"
	 width="141.73px" height="28.35px" viewBox="0 0 141.73 28.35" enable-background="new 0 0 141.73 28.35" xml:space="preserve">
<g>
	<rect x="1.374" y="12.233" fill="#CB2027" width="7.483" height="2.625"/>
	<rect x="1.374" y="6.746" fill="#CB2027" width="7.483" height="3.912"/>
	<rect x="1.374" fill="#CB2027" width="7.483" height="5.171"/>
	<path fill="#CB2027" d="M23.885,0h-5.711h-7.348h-0.134v19.637c0,0.055-0.024,0.082-0.072,0.082H8.929
		c-0.048,0-0.072-0.027-0.072-0.082v-3.204H1.374v6.572c0,2.164,1.247,3.245,3.742,3.245h5.71h3.607h3.847V11.445v-0.762h-1.574
		h-1.051l1.051-2.101l0.918-1.836l0.394-0.788l1.575-3.15l1.575,3.15l0.394,0.788l0.788,1.577l1.181,2.361H22.35h-1.444v0.762v4.986
		h2.979c2.494,0,3.741-1.108,3.741-3.327V3.328C27.626,1.109,26.379,0,23.885,0z"/>
</g>
<text transform="matrix(0.772 0 0 1 20.75 26.5547)" fill="#FFFFFF" font-family="'nevis-Bold'" font-size="8.5494">CONTENT MANAGEMENT SYSTEM</text>
<text transform="matrix(1 0 0 1 29.876 16.6992)"><tspan x="0" y="0" fill="#FFFFFF" font-family="'nevis-Bold'" font-size="22.6323">CMS</tspan><tspan x="51.542" y="0" fill="#FFFFFF" font-family="'nevis-Bold'" font-size="11.855"> </tspan><tspan x="55.594" y="0" fill="#666766" font-family="'nevis-Bold'" font-size="11.855">v1.2</tspan></text>
</svg>
