<?xml version="1.0" encoding="utf-8"?>
<!-- Generator: Adobe Illustrator 16.0.0, SVG Export Plug-In . SVG Version: 6.00 Build 0)  -->
<!DOCTYPE svg PUBLIC "-//W3C//DTD SVG 1.1//EN" "http://www.w3.org/Graphics/SVG/1.1/DTD/svg11.dtd">
<svg version="1.1" id="Layer_1" xmlns="http://www.w3.org/2000/svg" xmlns:xlink="http://www.w3.org/1999/xlink" x="0px" y="0px"
	 width="128px" height="16px" viewBox="0 0 128 16" enable-background="new 0 0 128 16" xml:space="preserve">
<g>
	<g id="c55_speedometer">
		<path fill="#CCCCCC" d="M13.038,4.762C11.684,3.601,9.926,2.894,8,2.894c-4.28,0-7.75,3.47-7.75,7.751
			c0,0.115,0.011,1.186,0.017,1.3v1.161h15.452V12.03l0.014-0.085c0.006-0.114,0.017-1.187,0.017-1.3
			C15.75,6.846,13.038,4.762,13.038,4.762z M2.135,11.945c-0.006-0.07,0.002-1.1-0.002-1.17h1.59v-0.513H2.245
			c0-0.007-0.111,0-0.111,0c0.062-1.331,0.57-2.658,1.527-3.705L3.7,6.514l0.071,0.062l1.058,1.059l0.332-0.333L4.038,6.179
			C5.055,5.25,6.345,4.716,7.723,4.655h0.08c0,0,0.033-0.002,0.031,0.02v1.567h0.423V4.654C8.465,4.663,8.674,4.688,8.88,4.72
			c1.183,0.156,2.282,0.667,3.171,1.479L10.93,7.321l0.312,0.313l1.077-1.078l0.06-0.047l0.052,0.067
			c0.931,1.018,1.463,2.307,1.526,3.684h-1.588v0.515l1.595-0.002c0,0,0.002,1.104-0.004,1.168L2.135,11.945z M10.085,8.242
			c0,0-2.521,0.774-3.003,1.255c-0.483,0.484-0.483,1.266,0.001,1.75c0.481,0.484,1.264,0.484,1.748,0
			C9.313,10.763,10.085,8.242,10.085,8.242z"/>
	</g>
	<g id="Capa_1_13_">
	</g>
</g>
<g>
	<path fill="#CCCCCC" d="M17.133,0.249v15.503h9.69l3.876-3.874V0.249H17.133z M26.824,14.382v-2.504h2.505L26.824,14.382z
		 M29.73,10.908h-0.969v-0.97h-0.969v0.97h-1.937v3.875h-7.752V1.218H29.73V10.908z M28.761,4.125h-9.689V2.187h9.689V4.125z
		 M24.885,7.033h-5.813v-0.97h5.813V7.033z M27.792,6.062h0.969v0.97h-0.969V6.062z M27.792,8.001h0.969V8.97h-0.969V8.001z
		 M25.855,8.97h-6.783V8.001h6.783V8.97z M22.948,10.908h-3.876v-0.97h3.876V10.908z M23.917,12.847h-4.845v-0.969h4.845V12.847z"/>
</g>
<g>
	<path fill="#CCCCCC" d="M45.214,0.054h-6.775c-0.724,0-1.312,0.589-1.312,1.312v0.446H36.68c-0.724,0-1.312,0.588-1.312,1.312
		v0.448h-0.446c-0.723,0-1.312,0.588-1.312,1.312v9.752c0,0.723,0.589,1.311,1.312,1.311h6.775c0.724,0,1.312-0.588,1.312-1.311
		v-0.448h0.447c0.724,0,1.313-0.589,1.313-1.313v-0.446h0.445c0.724,0,1.312-0.588,1.312-1.312v-9.75
		C46.526,0.643,45.938,0.054,45.214,0.054z M41.961,14.637c0,0.144-0.118,0.262-0.264,0.262h-6.775
		c-0.146,0-0.265-0.118-0.265-0.262V4.885c0-0.146,0.119-0.265,0.265-0.265h6.775c0.146,0,0.264,0.119,0.264,0.265V14.637z
		 M43.72,12.875c0,0.146-0.118,0.265-0.264,0.265h-0.447V4.885c0-0.724-0.588-1.312-1.312-1.312h-5.281V3.125
		c0-0.146,0.119-0.266,0.265-0.266h6.775c0.146,0,0.264,0.12,0.264,0.266V12.875z M45.479,11.116c0,0.146-0.118,0.267-0.264,0.267
		h-0.445V3.125c0-0.724-0.59-1.312-1.313-1.312h-5.281V1.366c0-0.146,0.119-0.265,0.265-0.265h6.775
		c0.146,0,0.264,0.118,0.264,0.265V11.116L45.479,11.116z"/>
	<path fill="#CCCCCC" d="M36.527,7.354h2.725c0.29,0,0.524-0.233,0.524-0.524c0-0.289-0.235-0.524-0.524-0.524h-2.725
		c-0.289,0-0.524,0.235-0.524,0.524C36.003,7.121,36.239,7.354,36.527,7.354z"/>
	<path fill="#CCCCCC" d="M40.091,8.404h-3.563c-0.289,0-0.524,0.235-0.524,0.523c0,0.289,0.235,0.524,0.524,0.524h3.563
		c0.29,0,0.523-0.235,0.523-0.524C40.614,8.639,40.38,8.404,40.091,8.404z"/>
	<path fill="#CCCCCC" d="M40.091,10.499h-3.563c-0.289,0-0.524,0.234-0.524,0.524c0,0.288,0.235,0.524,0.524,0.524h3.563
		c0.29,0,0.523-0.236,0.523-0.524C40.614,10.733,40.38,10.499,40.091,10.499z"/>
	<path fill="#CCCCCC" d="M40.091,12.594h-3.563c-0.289,0-0.524,0.236-0.524,0.524s0.235,0.524,0.524,0.524h3.563
		c0.29,0,0.523-0.236,0.523-0.524S40.38,12.594,40.091,12.594z"/>
</g>
<g>
	<path fill="#CCCCCC" d="M50.543,12.336l1.941,2.258c0.248,0.289,0.658,0.287,0.908,0l1.975-2.258h7.58
		c0.381,0,0.69-0.309,0.69-0.691V2.694c0-0.384-0.302-0.695-0.69-0.695H49.167c-0.381,0-0.69,0.31-0.69,0.695v8.951
		c0,0.381,0.305,0.691,0.688,0.691H50.543z M51.232,4.909c0-0.084,0.069-0.154,0.152-0.154h8.657c0.084,0,0.151,0.069,0.151,0.154
		v0.383c0,0.084-0.068,0.153-0.151,0.153h-8.657c-0.084,0-0.152-0.068-0.152-0.153V4.909L51.232,4.909z M51.232,6.976
		c0-0.084,0.069-0.152,0.152-0.152h8.657c0.084,0,0.151,0.068,0.151,0.152v0.383c0,0.084-0.068,0.153-0.151,0.153h-8.657
		c-0.084,0-0.152-0.069-0.152-0.153V6.976L51.232,6.976z M51.232,9.044c0-0.084,0.065-0.152,0.145-0.152h5.915
		c0.079,0,0.144,0.067,0.144,0.152v0.382c0,0.086-0.064,0.154-0.144,0.154h-5.915c-0.079,0-0.145-0.068-0.145-0.154V9.044
		L51.232,9.044z"/>
</g>
<g>
	<g>
		<g>
			<path fill="#CCCCCC" d="M79.851,5.247l-5.857-3.063c-0.069-0.035-0.15-0.004-0.184,0.069l-1.274,2.922h0.695l0.936-2.147
				l5.077,2.657l-1.587,3.638l-0.896-0.467v1.924l0.55,0.289c0.069,0.035,0.149,0.002,0.183-0.07l2.421-5.551
				C79.948,5.373,79.918,5.282,79.851,5.247z"/>
		</g>
		<g>
			<path fill="#CCCCCC" d="M64.079,5.211l5.855-3.063c0.068-0.036,0.15-0.005,0.184,0.068l1.275,2.923h-0.695l-0.937-2.147
				l-5.077,2.656l1.588,3.642l0.894-0.47v1.923l-0.549,0.289c-0.069,0.037-0.149,0.004-0.182-0.068l-2.422-5.552
				C63.981,5.337,64.01,5.247,64.079,5.211z"/>
		</g>
		<g>
			<path fill="#CCCCCC" d="M76.208,5.675h-8.243c-0.096,0-0.174,0.085-0.174,0.189v7.812c0,0.105,0.078,0.191,0.174,0.191h8.243
				c0.098,0,0.175-0.086,0.175-0.191V5.864C76.383,5.76,76.304,5.675,76.208,5.675z M75.731,11.662h-0.522
				c-0.304-0.854-0.678-2.051-1.247-1.891c-0.666,0.186-1,1.891-1,1.891s-0.339-1.92-1.278-2.954
				c-0.942-1.03-1.854,2.954-1.854,2.954h-1.245V6.539h7.146V11.662z"/>
		</g>
		<g>
			<ellipse fill="#CCCCCC" cx="69.739" cy="7.638" rx="0.583" ry="0.638"/>
		</g>
		<g>
			<path fill="#CCCCCC" d="M73.651,8.089c0.13,0,0.254-0.017,0.361-0.041c0.127,0.06,0.283,0.096,0.45,0.096
				c0.429,0,0.778-0.23,0.778-0.513c0-0.283-0.35-0.515-0.778-0.515c-0.161,0-0.311,0.034-0.435,0.089
				c-0.051-0.054-0.119-0.089-0.196-0.089H73.72c-0.144,0-0.258,0.121-0.274,0.274c-0.349,0.039-0.606,0.177-0.606,0.343
				C72.838,7.93,73.203,8.089,73.651,8.089z"/>
		</g>
	</g>
</g>
<g id="Group">
	<path fill="#CCCCCC" d="M87.959,8.283c1.354,0,2.408-1.405,2.408-2.859V4.968c0-1.454-1.054-2.486-2.408-2.486
		s-2.408,1.032-2.408,2.486v0.457C85.551,6.878,86.604,8.283,87.959,8.283z M83.134,8.754c0.389,0,1.448-0.503,1.448-1.546V6.435
		c0-1.042-0.766-1.545-1.448-1.545c-0.659,0-1.447,0.502-1.447,1.545v0.773C81.687,8.251,82.768,8.754,83.134,8.754z M91.806,10.685
		c0-0.008-0.003-0.015-0.004-0.022c-0.012-0.09-0.028-0.18-0.054-0.267c0-0.001,0-0.001,0-0.002
		c-0.051-0.186-0.136-0.364-0.264-0.541l0,0c-0.209-0.289-0.524-0.584-1.036-0.872c-0.271-0.152-0.39-0.222-0.558-0.222
		c-0.266,0-0.498,0.208-0.891,0.567h-0.001l-0.355,0.327c-0.014,0.013-0.396,0.555-0.685,0.555s-0.671-0.543-0.685-0.555
		l-0.355-0.327h-0.001c-0.393-0.359-0.625-0.567-0.891-0.567c-0.168,0-0.317,0.07-0.558,0.222c-0.497,0.314-0.827,0.583-1.036,0.872
		l0,0c-0.001,0-0.001,0.003-0.002,0.003c-0.126,0.174-0.211,0.351-0.261,0.535c-0.001,0.003-0.001,0.004-0.002,0.006
		c-0.024,0.086-0.041,0.174-0.053,0.265c0,0.009-0.004,0.016-0.004,0.023c-0.011,0.097-0.016,0.194-0.016,0.296
		c0,0.012,0,2.115,0,2.125c0,0.686,0.258,0.966,0.965,0.966h5.795c0.713,0,0.965-0.264,0.965-0.966c0-0.01,0-2.113,0-2.125
		C91.821,10.879,91.816,10.781,91.806,10.685z M92.792,8.754c0.387,0,1.446-0.503,1.446-1.546V6.435
		c0-1.042-0.765-1.545-1.446-1.545c-0.66,0-1.447,0.502-1.447,1.545v0.773C91.345,8.251,92.426,8.754,92.792,8.754z M81.332,9.798
		c-0.899,0.512-1.1,1.329-1.1,1.859c0,0.007,0,0.957,0,0.965c0,0.701,0.236,0.967,0.966,0.967h1.932c0,0,0-2.053,0-2.898
		l-0.483-0.482C82.137,9.757,81.705,9.585,81.332,9.798z M83.13,10.69C83.142,10.701,83.13,10.46,83.13,10.69L83.13,10.69z
		 M95.686,11.657c0-0.53-0.2-1.348-1.1-1.859c-0.373-0.213-0.805-0.041-1.314,0.41l-0.483,0.482c0,0.846,0,2.898,0,2.898h1.932
		c0.729,0,0.966-0.266,0.966-0.967C95.686,12.614,95.686,11.664,95.686,11.657z M92.788,10.69
		C92.788,10.46,92.776,10.701,92.788,10.69L92.788,10.69z"/>
</g>
<path fill="#CCCCCC" d="M111.641,7.256c-0.024-0.216-0.276-0.379-0.493-0.379c-0.705,0-1.33-0.414-1.593-1.054
	c-0.268-0.655-0.095-1.42,0.43-1.901c0.166-0.151,0.185-0.405,0.048-0.58c-0.362-0.458-0.771-0.872-1.219-1.23
	c-0.175-0.141-0.433-0.121-0.585,0.047c-0.458,0.508-1.28,0.697-1.917,0.431c-0.662-0.278-1.079-0.949-1.039-1.669
	c0.014-0.227-0.152-0.423-0.376-0.449c-0.575-0.067-1.156-0.069-1.731-0.005c-0.223,0.025-0.388,0.217-0.381,0.44
	c0.026,0.712-0.396,1.372-1.053,1.641c-0.628,0.257-1.446,0.069-1.903-0.434c-0.152-0.166-0.405-0.187-0.58-0.049
	c-0.462,0.362-0.88,0.775-1.245,1.23c-0.143,0.176-0.12,0.432,0.045,0.583c0.537,0.485,0.709,1.256,0.432,1.919
	c-0.266,0.632-0.922,1.039-1.674,1.039c-0.244-0.007-0.416,0.156-0.443,0.378c-0.068,0.578-0.068,1.167-0.003,1.749
	c0.023,0.217,0.283,0.378,0.503,0.378c0.671-0.019,1.312,0.396,1.583,1.055c0.268,0.655,0.095,1.417-0.43,1.901
	c-0.165,0.149-0.187,0.402-0.048,0.579c0.357,0.454,0.769,0.867,1.217,1.229c0.176,0.142,0.433,0.122,0.585-0.047
	c0.461-0.508,1.284-0.695,1.918-0.432c0.663,0.277,1.08,0.951,1.04,1.67c-0.014,0.229,0.152,0.424,0.376,0.451
	c0.296,0.032,0.591,0.049,0.887,0.049c0.281,0,0.563-0.014,0.845-0.046c0.223-0.024,0.388-0.215,0.381-0.438
	c-0.026-0.715,0.396-1.373,1.053-1.643c0.632-0.256,1.446-0.067,1.903,0.436c0.152,0.163,0.403,0.185,0.58,0.049
	c0.46-0.361,0.878-0.775,1.245-1.232c0.143-0.174,0.12-0.432-0.047-0.584c-0.535-0.484-0.708-1.257-0.431-1.918
	c0.261-0.625,0.894-1.044,1.573-1.044l0.095,0.006c0.221,0.016,0.423-0.153,0.45-0.379C111.706,8.426,111.706,7.838,111.641,7.256z
	 M104,12.543c-2.447,0-4.433-1.985-4.433-4.433c0-2.449,1.985-4.433,4.433-4.433s4.433,1.984,4.433,4.433
	c0,0.831-0.229,1.607-0.627,2.273l-1.94-1.941c0.139-0.331,0.215-0.69,0.215-1.062c0-0.726-0.284-1.408-0.797-1.922
	c-0.514-0.513-1.195-0.795-1.921-0.795c-0.243,0-0.482,0.032-0.717,0.095c-0.102,0.028-0.187,0.112-0.213,0.215
	c-0.029,0.104,0.004,0.212,0.085,0.293c0,0,0.959,0.966,1.28,1.287c0.033,0.034,0.032,0.113,0.028,0.143l-0.003,0.021
	c-0.034,0.353-0.095,0.775-0.146,0.938c-0.008,0.007-0.015,0.013-0.021,0.02c-0.007,0.008-0.016,0.015-0.022,0.022
	c-0.163,0.053-0.594,0.116-0.951,0.148V7.842l-0.017,0.004c-0.003,0-0.008,0-0.015,0c-0.038,0-0.096-0.011-0.147-0.062
	c-0.334-0.334-1.255-1.248-1.255-1.248c-0.081-0.083-0.167-0.1-0.225-0.1c-0.13,0-0.248,0.095-0.285,0.232
	c-0.254,0.938,0.015,1.946,0.701,2.633c0.513,0.513,1.195,0.796,1.922,0.796c0.371,0,0.73-0.073,1.061-0.215l1.964,1.964
	C105.697,12.287,104.879,12.543,104,12.543z"/>
<g>
	<g>
		<g>
			<path fill="#CCCCCC" d="M127.315,11.545l-0.671-0.387c0.044-0.246,0.072-0.5,0.072-0.756c0-0.262-0.028-0.514-0.072-0.758
				l0.671-0.389c0.297-0.17,0.397-0.55,0.227-0.848l-0.785-1.361c-0.172-0.298-0.553-0.399-0.85-0.228l-0.67,0.386
				c-0.383-0.327-0.826-0.583-1.31-0.756V5.675c0-0.025-0.014-0.046-0.015-0.07c-0.082,0.069-0.166,0.132-0.259,0.185l-0.151,0.087
				c0.004,0.094,0.005,0.188,0.005,0.281c0,0.093-0.001,0.187-0.005,0.281l0.151,0.088c0.392,0.226,0.684,0.606,0.801,1.043
				c0.119,0.444,0.058,0.908-0.173,1.305l-0.867,1.504c-0.306,0.531-0.878,0.859-1.49,0.859c-0.299,0-0.596-0.08-0.857-0.232
				l-0.154-0.088c-0.156,0.102-0.318,0.195-0.485,0.279v0.18c0,0.947-0.771,1.717-1.718,1.717h-0.809l0.381,0.66
				c0.172,0.297,0.552,0.4,0.848,0.23l0.672-0.389c0.383,0.326,0.826,0.582,1.31,0.754v0.777c0,0.342,0.279,0.619,0.622,0.619h1.572
				c0.343,0,0.622-0.277,0.622-0.619V14.35c0.481-0.172,0.927-0.428,1.31-0.754l0.67,0.389c0.297,0.168,0.676,0.066,0.85-0.23
				l0.785-1.361C127.713,12.096,127.612,11.717,127.315,11.545z"/>
			<path fill="#CCCCCC" d="M117.843,4.294c-1.026,0-1.864,0.836-1.864,1.864c0,1.027,0.836,1.863,1.864,1.863
				c1.027,0,1.864-0.836,1.864-1.863C119.707,5.13,118.87,4.294,117.843,4.294z"/>
			<path fill="#CCCCCC" d="M119.395,11.377V10.52c0.535-0.189,1.025-0.475,1.448-0.836l0.74,0.43
				c0.109,0.062,0.226,0.092,0.342,0.092c0.237,0,0.467-0.123,0.596-0.346l0.867-1.502c0.09-0.157,0.116-0.344,0.068-0.52
				c-0.047-0.176-0.161-0.325-0.319-0.416l-0.739-0.427c0.049-0.272,0.079-0.551,0.079-0.836c0-0.287-0.03-0.564-0.079-0.836
				l0.739-0.427c0.158-0.091,0.272-0.241,0.319-0.416c0.048-0.176,0.021-0.363-0.068-0.52l-0.867-1.504
				c-0.091-0.158-0.242-0.272-0.417-0.319c-0.059-0.015-0.119-0.023-0.178-0.023c-0.118,0-0.237,0.031-0.343,0.092l-0.738,0.427
				c-0.425-0.361-0.915-0.645-1.45-0.836V0.941c0-0.379-0.306-0.686-0.685-0.686h-1.736c-0.379,0-0.685,0.307-0.685,0.686v0.854
				c-0.536,0.191-1.024,0.475-1.449,0.836l-0.739-0.428c-0.105-0.06-0.224-0.091-0.344-0.091c-0.059,0-0.118,0.008-0.176,0.023
				c-0.177,0.047-0.327,0.162-0.418,0.319l-0.866,1.503c-0.191,0.328-0.078,0.747,0.249,0.937l0.741,0.427
				c-0.051,0.271-0.08,0.549-0.08,0.836c0,0.286,0.029,0.564,0.08,0.836l-0.741,0.427c-0.327,0.189-0.44,0.608-0.249,0.936
				l0.866,1.502c0.128,0.223,0.359,0.346,0.594,0.346c0.118,0,0.234-0.029,0.344-0.092l0.739-0.426
				c0.425,0.357,0.913,0.643,1.449,0.832v0.857c0,0.379,0.306,0.684,0.685,0.684h1.736
				C119.089,12.061,119.395,11.756,119.395,11.377z M114.945,6.158c0-1.597,1.301-2.897,2.897-2.897s2.896,1.3,2.896,2.897
				c0,1.597-1.3,2.896-2.896,2.896S114.945,7.755,114.945,6.158z"/>
		</g>
	</g>
</g>
</svg>
